<?xml version="1.0" encoding="UTF-8" standalone="no"?>
<!-- Created with Inkscape (http://www.inkscape.org/) -->

<svg
   xmlns:dc="http://purl.org/dc/elements/1.1/"
   xmlns:cc="http://creativecommons.org/ns#"
   xmlns:rdf="http://www.w3.org/1999/02/22-rdf-syntax-ns#"
   xmlns:svg="http://www.w3.org/2000/svg"
   xmlns="http://www.w3.org/2000/svg"
   xmlns:sodipodi="http://sodipodi.sourceforge.net/DTD/sodipodi-0.dtd"
   xmlns:inkscape="http://www.inkscape.org/namespaces/inkscape"
   width="210mm"
   height="297mm"
   viewBox="0 0 210 297"
   version="1.1"
   id="svg881"
   sodipodi:docname="watermark.svg"
   inkscape:version="0.92.4 (5da689c313, 2019-01-14)">
  <defs
     id="defs875" />
  <sodipodi:namedview
     id="base"
     pagecolor="#ffffff"
     bordercolor="#666666"
     borderopacity="1.0"
     inkscape:pageopacity="0.0"
     inkscape:pageshadow="2"
     inkscape:zoom="1.4"
     inkscape:cx="395.53422"
     inkscape:cy="907.61563"
     inkscape:document-units="mm"
     inkscape:current-layer="layer1"
     showgrid="true"
     inkscape:window-width="1920"
     inkscape:window-height="1017"
     inkscape:window-x="-8"
     inkscape:window-y="-8"
     inkscape:window-maximized="1"
     units="in"
     inkscape:snap-bbox="true"
     inkscape:bbox-nodes="true"
     inkscape:snap-nodes="false">
    <inkscape:grid
       type="xygrid"
       id="grid887"
       units="mm"
       spacingx="1"
       spacingy="1" />
  </sodipodi:namedview>
  <metadata
     id="metadata878">
    <rdf:RDF>
      <cc:Work
         rdf:about="">
        <dc:format>image/svg+xml</dc:format>
        <dc:type
           rdf:resource="http://purl.org/dc/dcmitype/StillImage" />
        <dc:title></dc:title>
      </cc:Work>
    </rdf:RDF>
  </metadata>
  <g
     inkscape:label="Layer 1"
     inkscape:groupmode="layer"
     id="layer1">
    <g
       aria-label="DRAFT"
       style="font-style:normal;font-weight:normal;font-size:10.58333302px;line-height:1.25;font-family:sans-serif;letter-spacing:0px;word-spacing:0px;fill:#000000;fill-opacity:1;stroke:none;stroke-width:0.26458332"
       id="text885" />
    <path
       id="path891"
       style="color:#000000;font-style:normal;font-variant:normal;font-weight:normal;font-stretch:normal;font-size:medium;line-height:normal;font-family:sans-serif;font-variant-ligatures:normal;font-variant-position:normal;font-variant-caps:normal;font-variant-numeric:normal;font-variant-alternates:normal;font-feature-settings:normal;text-indent:0;text-align:start;text-decoration:none;text-decoration-line:none;text-decoration-style:solid;text-decoration-color:#000000;letter-spacing:normal;word-spacing:normal;text-transform:none;writing-mode:lr-tb;direction:ltr;text-orientation:mixed;dominant-baseline:auto;baseline-shift:baseline;text-anchor:start;white-space:normal;shape-padding:0;clip-rule:nonzero;display:inline;overflow:visible;visibility:visible;opacity:1;isolation:auto;mix-blend-mode:normal;color-interpolation:sRGB;color-interpolation-filters:linearRGB;solid-color:#000000;solid-opacity:1;vector-effect:none;fill:#b8b8b8;fill-opacity:1;fill-rule:nonzero;stroke:none;stroke-width:1.32291663;stroke-linecap:round;stroke-linejoin:miter;stroke-miterlimit:4;stroke-dasharray:none;stroke-dashoffset:0;stroke-opacity:1;color-rendering:auto;image-rendering:auto;shape-rendering:auto;text-rendering:auto;enable-background:accumulate"
       d="m 119.66992,9.6777344 a 0.66152446,0.66152446 0 1 0 0,1.3222656 h 85 a 0.66152446,0.66152446 0 1 0 0,-1.3222656 z m -115.3398419,0 a 0.66152446,0.66152446 0 1 0 0,1.3222656 H 89.330078 a 0.66152446,0.66152446 0 1 0 0,-1.3222656 z M 117.33265,8.63425 v 5.2705 h -1.56633 v -5.2705 h -1.79917 l 0.10584,-1.2911666 h 4.99533 V 8.63425 Z m -4.70727,2.719917 h -2.286 v 2.550583 h -1.56633 V 7.3430834 h 4.27567 V 8.63425 h -2.70934 v 1.524 h 2.286 z m -6.58051,2.6035 q -0.0741,-0.359834 -0.33867,-1.68275 h -1.66158 q -0.26459,1.23825 -0.33867,1.629833 h -1.55575 q 1.016,-4.2545 1.66158,-6.5616666 h 2.14842 Q 106.69045,9.936 107.62178,13.851833 Z M 104.82778,8.5919167 Q 104.66903,9.301 104.27745,11.153083 h 1.19592 q -0.0318,-0.148166 -0.55034,-2.5611663 z M 100.1946,14 l -1.058335,-2.233083 -0.73025,0.02117 V 13.90475 H 96.871432 V 7.3430834 q 1.30175,-0.1164167 2.169583,-0.0635 0.867833,0.042333 1.386415,0.3280833 0.51859,0.2751667 0.73025,0.66675 0.21167,0.381 0.21167,0.92075 0,1.0371663 -1.02658,1.7780003 l 1.524,2.836333 z M 98.406015,8.5284167 v 2.1801663 l 0.846667,-0.02117 q 0.592667,-0.423334 0.592667,-1.1430003 0,-1.17475 -1.439334,-1.016 z M 95.77308,10.5075 q 0,1.957917 -1.153583,2.846917 -1.143,0.878416 -3.6195,0.550333 V 7.3430834 q 1.767417,-0.22225 2.815167,0.052917 1.058333,0.2751666 1.502833,1.0265833 Q 95.77308,9.174 95.77308,10.5075 Z m -1.576916,0.201083 q 0,-1.217083 -0.359834,-1.7462496 -0.34925,-0.5291667 -1.312333,-0.4339167 v 4.1592503 q 0.994833,0.137583 1.3335,-0.296334 0.338667,-0.4445 0.338667,-1.68275 z" />
  </g>
</svg>
