<!-- Generated by IcoMoon.io -->
<svg version="1.1" xmlns="http://www.w3.org/2000/svg" width="32" height="32" viewBox="0 0 32 32">
<title>address-book</title>
<path d="M24.333 4c0.833 0 1.5 0.667 1.5 1.5v21c0 0.833-0.667 1.5-1.5 1.5h-15c-0.833 0-1.5-0.667-1.5-1.5v-1.5h-2.5c-0.278 0-0.5-0.222-0.5-0.5v-2c0-0.278 0.222-0.5 0.5-0.5h2.5v-4.5h-2.5c-0.278 0-0.5-0.222-0.5-0.5v-2c0-0.278 0.222-0.5 0.5-0.5h2.5v-4.5h-2.5c-0.278 0-0.5-0.222-0.5-0.5v-2c0-0.278 0.222-0.5 0.5-0.5h2.5v-1.5c0-0.833 0.667-1.5 1.5-1.5h15zM16.667 16c1.473 0 2.667-1.193 2.667-2.667s-1.193-2.667-2.667-2.667c-1.473 0-2.667 1.193-2.667 2.667s1.193 2.667 2.667 2.667zM16.667 17.333c-1.78 0-5.333 0.893-5.333 2.667v1.333h10.667v-1.333c0-1.773-3.553-2.667-5.333-2.667z"></path>
</svg>
