<!-- Generated by IcoMoon.io -->
<svg version="1.1" xmlns="http://www.w3.org/2000/svg" width="32" height="32" viewBox="0 0 32 32">
<title>address-book-sync</title>
<path d="M24.333 4c0.833 0 1.5 0.667 1.5 1.5v21c0 0.833-0.667 1.5-1.5 1.5h-15c-0.833 0-1.5-0.667-1.5-1.5v-1.5h-2.5c-0.278 0-0.5-0.222-0.5-0.5v-2c0-0.278 0.222-0.5 0.5-0.5h2.5v-4.5h-2.5c-0.278 0-0.5-0.222-0.5-0.5v-2c0-0.278 0.222-0.5 0.5-0.5h2.5v-4.5h-2.5c-0.278 0-0.5-0.222-0.5-0.5v-2c0-0.278 0.222-0.5 0.5-0.5h2.5v-1.5c0-0.833 0.667-1.5 1.5-1.5h15zM16.833 11.333v-2l-2.667 2.667 2.667 2.667v-2c2.207 0 4 1.793 4 4 0 0.673-0.167 1.313-0.467 1.867l0.973 0.973c0.52-0.82 0.827-1.793 0.827-2.84 0-2.947-2.387-5.333-5.333-5.333zM16.833 20.667c-2.207 0-4-1.793-4-4 0-0.673 0.167-1.313 0.467-1.867l-0.973-0.973c-0.52 0.82-0.827 1.793-0.827 2.84 0 2.947 2.387 5.333 5.333 5.333v2l2.667-2.667-2.667-2.667v2z"></path>
</svg>
