<!-- Generated by IcoMoon.io -->
<svg version="1.1" xmlns="http://www.w3.org/2000/svg" width="32" height="32" viewBox="0 0 32 32">
<title>archive</title>
<path d="M19.712 12.942c0.009 0.060 0.016 0.122 0.016 0.185v1.597c0 0.63-0.425 1.146-0.945 1.146h-5.564c-0.52 0-0.945-0.516-0.945-1.146v-1.597c0-0.063 0.007-0.124 0.015-0.185h-6.788v12.579c0 0.63 0.425 1.146 0.945 1.146h19.11c0.52 0 0.945-0.516 0.945-1.146v-12.579h-6.788zM28 10.324c0 0.603-0.438 1.096-0.972 1.096h-22.055c-0.535 0-0.972-0.493-0.972-1.096v-3.895c0-0.603 0.438-1.096 0.972-1.096h22.055c0.535 0 0.972 0.493 0.972 1.096v3.895z"></path>
</svg>
