<!-- Generated by IcoMoon.io -->
<svg version="1.1" xmlns="http://www.w3.org/2000/svg" width="32" height="32" viewBox="0 0 32 32">
<title>bell-slash</title>
<path d="M26.667 24.587l-19.64-20.267-1.693 1.693 3.733 3.733v0.013c-0.693 1.32-1.067 2.88-1.067 4.56v6.667l-2.667 2.667v1.333h18.307l2.667 2.667 1.693-1.693-1.333-1.373zM16 29c1.48 0 2.667-1.187 2.667-2.667h-5.333c0 1.48 1.187 2.667 2.667 2.667zM24 19.24v-4.907c0-4.107-2.187-7.52-6-8.427v-0.907c0-1.107-0.893-2-2-2s-2 0.893-2 2v0.907c-0.2 0.040-0.387 0.107-0.56 0.16-0.133 0.040-0.267 0.093-0.4 0.147h-0.013c-0.013 0-0.013 0-0.027 0.013-0.307 0.12-0.613 0.267-0.907 0.413 0 0-0.013 0-0.013 0.013l11.92 12.587z"></path>
</svg>
