<!-- Generated by IcoMoon.io -->
<svg version="1.1" xmlns="http://www.w3.org/2000/svg" width="32" height="32" viewBox="0 0 32 32">
<title>calendar-range</title>
<path d="M12 14h-2.667v2.667h2.667v-2.667zM17.333 14h-2.667v2.667h2.667v-2.667zM22.667 14h-2.667v2.667h2.667v-2.667zM25.333 4.667h-1.333v-2.667h-2.667v2.667h-10.667v-2.667h-2.667v2.667h-1.333c-1.48 0-2.653 1.2-2.653 2.667l-0.013 18.667c0 1.467 1.187 2.667 2.667 2.667h18.667c1.467 0 2.667-1.2 2.667-2.667v-18.667c0-1.467-1.2-2.667-2.667-2.667zM25.333 26h-18.667v-14.667h18.667v14.667z"></path>
</svg>
