<!-- Generated by IcoMoon.io -->
<svg version="1.1" xmlns="http://www.w3.org/2000/svg" width="32" height="32" viewBox="0 0 32 32">
<title>check-square-o</title>
<path d="M8.223 9.77v12.459c0 0.841 0.694 1.547 1.547 1.547h12.459c0.841 0 1.547-0.694 1.547-1.547v-12.459c0-0.841-0.694-1.547-1.547-1.547h-12.456c-0.841-0.003-1.55 0.691-1.55 1.547v0zM6.667 9.77c0-1.713 1.403-3.103 3.103-3.103h12.459c1.712 0 3.103 1.403 3.103 3.103v12.459c0 1.712-1.403 3.103-3.103 3.103h-12.456c-1.713 0-3.103-1.403-3.103-3.103l-0.003-12.459zM14.173 20.798v0l8.228-8.291-1.291-1.309-6.938 6.994-3.281-3.3-1.291 1.3 4.572 4.606z"></path>
</svg>
