<!-- Generated by IcoMoon.io -->
<svg version="1.1" xmlns="http://www.w3.org/2000/svg" width="32" height="32" viewBox="0 0 32 32">
<title>cog</title>
<path d="M16 21.431c-3.077 0-5.572-2.431-5.572-5.431s2.495-5.431 5.572-5.431c3.077 0 5.572 2.431 5.572 5.431s-2.494 5.431-5.572 5.431zM26.398 16.937c0.011-0.157 0.016-0.312 0.023-0.471 0.005-0.14 0.008-0.282 0.021-0.513-0.013-0.14-0.016-0.281-0.021-0.423-0.007-0.148-0.012-0.298-0.023-0.447 0.975-0.458 1.897-0.983 2.693-1.537 0.191-0.133 0.281-0.362 0.228-0.588-0.143-0.625-0.343-1.248-0.616-1.91-0.082-0.202-0.278-0.341-0.501-0.355-1.070-0.067-2.152-0.029-3.233 0.108-0.004-0.008-0.011-0.016-0.014-0.024-0.163-0.273-0.331-0.541-0.506-0.745-0.171-0.239-0.362-0.48-0.59-0.725 0.476-0.852 0.875-1.748 1.249-2.782 0.081-0.222 0.009-0.469-0.174-0.621-0.605-0.503-1.129-0.878-1.648-1.187-0.19-0.113-0.429-0.108-0.616 0.008-0.922 0.57-1.776 1.219-2.54 1.927-0.216-0.088-0.432-0.164-0.644-0.238l-0.272-0.096c-0.273-0.080-0.575-0.167-0.894-0.238-0.146-1.024-0.378-2.043-0.675-2.971-0.070-0.222-0.275-0.379-0.511-0.397-0.681-0.049-1.364-0.066-2.042-0.012-0.224 0.018-0.415 0.156-0.495 0.354-0.382 0.922-0.685 1.958-0.891 3.020-0.327 0.075-0.647 0.164-0.954 0.255l-0.242 0.085c-0.203 0.073-0.412 0.144-0.62 0.228-0.717-0.731-1.498-1.408-2.33-2.009-0.184-0.134-0.435-0.148-0.636-0.039-0.568 0.314-1.078 0.701-1.571 1.072l-0.098 0.074c-0.185 0.141-0.263 0.377-0.2 0.599 0.308 1.116 0.662 2.066 1.103 2.954-0.232 0.251-0.423 0.487-0.574 0.702-0.205 0.243-0.373 0.51-0.534 0.778-0.001 0.006-0.003 0.010-0.006 0.013-1.008-0.178-2.052-0.28-3.109-0.3-0.255-0.013-0.475 0.145-0.56 0.368l-0.051 0.127c-0.22 0.563-0.444 1.147-0.586 1.766-0.044 0.208 0.030 0.423 0.196 0.561 0.804 0.653 1.701 1.243 2.673 1.755-0.015 0.159-0.021 0.317-0.027 0.475-0.005 0.14-0.009 0.28-0.021 0.505 0.012 0.138 0.016 0.277 0.021 0.418 0.005 0.152 0.011 0.305 0.023 0.458-0.974 0.457-1.898 0.983-2.691 1.535-0.193 0.132-0.283 0.365-0.23 0.587 0.142 0.628 0.344 1.251 0.613 1.91 0.085 0.206 0.283 0.343 0.507 0.359 1.069 0.067 2.155 0.025 3.231-0.11 0.004 0.009 0.009 0.019 0.015 0.030 0.161 0.269 0.329 0.535 0.504 0.741 0.17 0.239 0.365 0.48 0.588 0.724-0.473 0.845-0.872 1.741-1.244 2.782-0.084 0.223-0.012 0.469 0.172 0.621 0.61 0.506 1.134 0.882 1.647 1.188 0.19 0.108 0.426 0.107 0.616-0.009 0.922-0.573 1.776-1.22 2.539-1.929 0.217 0.091 0.435 0.166 0.644 0.241l0.274 0.095c0.285 0.083 0.585 0.168 0.89 0.236 0.146 1.018 0.377 2.038 0.675 2.969 0.070 0.224 0.274 0.381 0.513 0.4 0.389 0.027 0.778 0.046 1.169 0.046 0.291 0 0.584-0.011 0.875-0.035 0.218-0.018 0.409-0.155 0.494-0.354 0.383-0.925 0.684-1.96 0.893-3.019 0.32-0.072 0.632-0.159 0.949-0.255l0.232-0.082c0.207-0.073 0.419-0.144 0.629-0.231 0.721 0.735 1.502 1.409 2.333 2.012 0.187 0.132 0.436 0.149 0.637 0.038 0.576-0.322 1.090-0.711 1.665-1.149 0.188-0.14 0.268-0.375 0.204-0.598-0.311-1.115-0.665-2.063-1.103-2.951 0.227-0.25 0.421-0.487 0.575-0.705 0.204-0.242 0.372-0.512 0.535-0.782 0-0.002 0.003-0.004 0.003-0.008 1.008 0.178 2.056 0.279 3.114 0.299h0.004c0.248 0 0.503-0.237 0.589-0.461 0.223-0.573 0.453-1.167 0.598-1.799 0.047-0.207-0.028-0.423-0.197-0.56-0.804-0.654-1.701-1.245-2.668-1.756z"></path>
</svg>
