<!-- Generated by IcoMoon.io -->
<svg version="1.1" xmlns="http://www.w3.org/2000/svg" width="32" height="32" viewBox="0 0 32 32">
<title>ellipsis-h</title>
<path d="M21.333 16c0 1.467 1.2 2.667 2.667 2.667s2.667-1.2 2.667-2.667c0-1.467-1.2-2.667-2.667-2.667s-2.667 1.2-2.667 2.667v0zM18.667 16c0-1.467-1.2-2.667-2.667-2.667s-2.667 1.2-2.667 2.667c0 1.467 1.2 2.667 2.667 2.667s2.667-1.2 2.667-2.667v0zM10.667 16c0-1.467-1.2-2.667-2.667-2.667s-2.667 1.2-2.667 2.667c0 1.467 1.2 2.667 2.667 2.667s2.667-1.2 2.667-2.667v0z"></path>
</svg>
