<!-- Generated by IcoMoon.io -->
<svg version="1.1" xmlns="http://www.w3.org/2000/svg" width="32" height="32" viewBox="0 0 32 32">
<title>encrypted</title>
<path d="M23.961 12.578v-2.789l-9.244 5.778-9.244-5.778v11.556h13.217v2.311h-13.217c-1.271 0-2.311-1.040-2.311-2.311v-13.867c0-1.271 1.040-2.311 2.311-2.311h18.489c1.271 0 2.311 1.040 2.311 2.311v5.1c-0.363-0.123-0.752-0.189-1.156-0.189s-0.793 0.066-1.156 0.189zM23.961 7.478h-18.489l9.244 5.778 9.244-5.778zM28.728 18.167c0.794 0 1.444 0.65 1.444 1.444v5.778c0 0.794-0.65 1.444-1.444 1.444h-7.222c-0.794 0-1.444-0.65-1.444-1.444v-5.778c0-0.794 0.65-1.444 1.444-1.444v-0.722c0-1.993 1.618-3.611 3.611-3.611s3.611 1.618 3.611 3.611v0.722zM27.572 18.167v-0.722c0-1.358-1.098-2.456-2.456-2.456s-2.456 1.098-2.456 2.456v0.722h4.911z"></path>
</svg>
