<!-- Generated by IcoMoon.io -->
<svg version="1.1" xmlns="http://www.w3.org/2000/svg" width="32" height="32" viewBox="0 0 32 32">
<title>facebook-official</title>
<path d="M27.862 29.333h-23.723c-0.813 0-1.472-0.659-1.472-1.472v-23.723c0-0.813 0.659-1.472 1.472-1.472h23.723c0.813 0 1.472 0.659 1.472 1.472v23.723c0 0.813-0.659 1.472-1.472 1.472zM21.066 29.333v-10.327h3.466l0.519-4.025h-3.985v-2.569c0-1.165 0.324-1.959 1.994-1.959l2.131-0.001v-3.6c-0.369-0.049-1.634-0.159-3.105-0.159-3.073 0-5.176 1.876-5.176 5.32v2.968h-3.475v4.025h3.475v10.327h4.156z"></path>
</svg>
