<!-- Generated by IcoMoon.io -->
<svg version="1.1" xmlns="http://www.w3.org/2000/svg" width="32" height="32" viewBox="0 0 32 32">
<title>file-powerpoint-o</title>
<path d="M29.334 17.333h-10.668v-2.667h10.668v2.667zM29.334 9.333h-10.668v2.667h10.668v-2.667zM18.667 22.667h10.668v-2.667h-10.668v2.667zM16 12v8.001c0 1.467-1.2 2.667-2.667 2.667h-8.001c-1.467 0-2.667-1.2-2.667-2.667v-8.001c0-1.467 1.2-2.667 2.667-2.667h8.001c1.467 0 2.667 1.2 2.667 2.667zM14 20l-3-4-2.334 3.014-1.667-2.014-2.334 3h9.334z"></path>
</svg>
