<!-- Generated by IcoMoon.io -->
<svg version="1.1" xmlns="http://www.w3.org/2000/svg" width="32" height="32" viewBox="0 0 32 32">
<title>file-pdf-o</title>
<path d="M28.902 19.026c-0.533-0.525-1.715-0.803-3.514-0.827-1.218-0.013-2.683 0.094-4.225 0.31-0.69-0.398-1.402-0.832-1.96-1.354-1.502-1.403-2.756-3.35-3.538-5.491 0.051-0.2 0.094-0.376 0.135-0.555 0 0 0.846-4.806 0.622-6.432-0.031-0.223-0.050-0.288-0.11-0.461l-0.073-0.189c-0.23-0.531-0.681-1.093-1.389-1.063l-0.426-0.013c-0.789 0-1.432 0.404-1.601 1.007-0.513 1.892 0.016 4.722 0.976 8.387l-0.246 0.597c-0.687 1.675-1.548 3.361-2.308 4.849l-0.099 0.194c-0.799 1.564-1.524 2.892-2.182 4.016l-0.679 0.359c-0.049 0.026-1.213 0.641-1.485 0.806-2.314 1.382-3.848 2.951-4.103 4.196-0.081 0.397-0.021 0.906 0.391 1.141l0.656 0.33c0.285 0.143 0.585 0.215 0.893 0.215 1.648 0 3.562-2.053 6.198-6.654 3.044-0.991 6.509-1.815 9.546-2.269 2.315 1.303 5.161 2.208 6.958 2.208 0.319 0 0.594-0.030 0.817-0.090 0.345-0.091 0.635-0.288 0.812-0.555 0.349-0.525 0.419-1.247 0.325-1.987-0.028-0.22-0.204-0.491-0.393-0.676zM4.28 27.798c0.301-0.822 1.49-2.447 3.25-3.889 0.111-0.090 0.383-0.345 0.633-0.582-1.84 2.934-3.072 4.104-3.882 4.471zM14.701 3.801c0.53 0 0.831 1.336 0.856 2.588s-0.268 2.131-0.631 2.781c-0.301-0.963-0.446-2.48-0.446-3.472 0 0-0.022-1.897 0.221-1.897zM11.592 20.902c0.369-0.661 0.753-1.358 1.146-2.097 0.957-1.809 1.561-3.225 2.011-4.388 0.895 1.628 2.009 3.012 3.319 4.121 0.163 0.138 0.337 0.277 0.518 0.416-2.664 0.527-4.967 1.168-6.994 1.948zM28.39 20.752c-0.162 0.101-0.627 0.16-0.926 0.16-0.965 0-2.159-0.441-3.832-1.159 0.643-0.048 1.233-0.072 1.762-0.072 0.968 0 1.255-0.004 2.201 0.237s0.958 0.732 0.796 0.833z"></path>
</svg>
