<!-- Generated by IcoMoon.io -->
<svg version="1.1" xmlns="http://www.w3.org/2000/svg" width="32" height="32" viewBox="0 0 32 32">
<title>folder-move</title>
<path d="M5.406 12.644c0.238-1.337 1.364-2.341 2.637-2.341h18.678v-0.936c0-0.713-0.541-1.294-1.205-1.294h-8.604l-2.418-2.413c-0.204-0.207-0.483-0.327-0.765-0.327h-6.709c-1.665 0-3.019 1.454-3.019 3.241v7.825c0 0.423 0.49 0.486 0.595 0l0.811-3.755zM26.849 25.462c-0.114 0.671-0.701 1.204-1.335 1.204l-20.445-0.003c-0.325 0-0.614-0.139-0.811-0.39s-0.278-0.596-0.223-0.944l2.677-12.393c0.108-0.664 0.694-1.2 1.331-1.2h20.285c0.325 0 0.616 0.145 0.8 0.398 0.189 0.258 0.251 0.608 0.171 0.961l-2.451 12.367zM18.222 23.266l3.771-4.728c0.287-0.36 0.161-0.655-0.28-0.655h-1.876v-2.605c0-0.212-0.161-0.386-0.359-0.386h-3.559c-0.197 0-0.359 0.173-0.359 0.386v2.605h-1.875c-0.442 0-0.568 0.294-0.28 0.655l3.902 4.892c0.215 0.27 0.568 0.27 0.783 0l0.131-0.164z"></path>
</svg>
