<!-- Generated by IcoMoon.io -->
<svg version="1.1" xmlns="http://www.w3.org/2000/svg" width="32" height="32" viewBox="0 0 32 32">
<title>GIF</title>
<path d="M11.858 20.646l0.269 1.361h1.68v-6.486h-5.041v1.966h2.655c-0.078 0.84-0.356 1.481-0.832 1.924s-1.151 0.664-2.025 0.664c-0.594 0-1.098-0.115-1.512-0.344s-0.751-0.535-1.008-0.916c-0.258-0.381-0.445-0.809-0.563-1.285s-0.176-0.966-0.176-1.47c0-0.527 0.059-1.036 0.176-1.529s0.305-0.933 0.563-1.319c0.258-0.386 0.594-0.695 1.008-0.924s0.919-0.344 1.512-0.344c0.639 0 1.182 0.168 1.63 0.504s0.751 0.84 0.907 1.512h2.52c-0.067-0.683-0.252-1.288-0.555-1.815s-0.686-0.969-1.151-1.327c-0.465-0.358-0.986-0.63-1.563-0.815s-1.173-0.277-1.79-0.277c-0.919 0-1.745 0.162-2.478 0.487s-1.353 0.773-1.857 1.344c-0.504 0.571-0.891 1.241-1.159 2.008s-0.403 1.599-0.403 2.495c0 0.874 0.134 1.689 0.403 2.445s0.655 1.414 1.159 1.974c0.504 0.56 1.123 1 1.857 1.319s1.56 0.479 2.478 0.479c0.582 0 1.159-0.12 1.731-0.361s1.092-0.664 1.563-1.269zM15.941 10.010v11.997h2.638v-11.997h-2.638zM20.898 10.010v11.997h2.638v-4.957h5.024v-2.050h-5.024v-2.773h5.797v-2.218h-8.435z"></path>
</svg>
