<!-- Generated by IcoMoon.io -->
<svg version="1.1" xmlns="http://www.w3.org/2000/svg" width="32" height="32" viewBox="0 0 32 32">
<title>language</title>
<path d="M15.988 4c-6.624 0-11.988 5.376-11.988 12s5.364 12 11.988 12c6.636 0 12.012-5.376 12.012-12s-5.376-12-12.012-12zM24.304 11.2h-3.54c-0.384-1.5-0.936-2.94-1.656-4.272 2.208 0.756 4.044 2.292 5.196 4.272zM16 6.448c0.996 1.44 1.776 3.036 2.292 4.752h-4.584c0.516-1.716 1.296-3.312 2.292-4.752zM6.712 18.4c-0.192-0.768-0.312-1.572-0.312-2.4s0.12-1.632 0.312-2.4h4.056c-0.096 0.792-0.168 1.584-0.168 2.4s0.072 1.608 0.168 2.4h-4.056zM7.696 20.8h3.54c0.384 1.5 0.936 2.94 1.656 4.272-2.208-0.756-4.044-2.28-5.196-4.272v0zM11.236 11.2h-3.54c1.152-1.992 2.988-3.516 5.196-4.272-0.72 1.332-1.272 2.772-1.656 4.272v0zM16 25.552c-0.996-1.44-1.776-3.036-2.292-4.752h4.584c-0.516 1.716-1.296 3.312-2.292 4.752zM18.808 18.4h-5.616c-0.108-0.792-0.192-1.584-0.192-2.4s0.084-1.62 0.192-2.4h5.616c0.108 0.78 0.192 1.584 0.192 2.4s-0.084 1.608-0.192 2.4zM19.108 25.072c0.72-1.332 1.272-2.772 1.656-4.272h3.54c-1.152 1.98-2.988 3.516-5.196 4.272v0zM21.232 18.4c0.096-0.792 0.168-1.584 0.168-2.4s-0.072-1.608-0.168-2.4h4.056c0.192 0.768 0.312 1.572 0.312 2.4s-0.12 1.632-0.312 2.4h-4.056z"></path>
</svg>
