<!-- Generated by IcoMoon.io -->
<svg version="1.1" xmlns="http://www.w3.org/2000/svg" width="32" height="32" viewBox="0 0 32 32">
<title>list-ul</title>
<path d="M5.667 14c-1.107 0-2 0.893-2 2s0.893 2 2 2c1.107 0 2-0.893 2-2s-0.893-2-2-2zM5.667 6c-1.107 0-2 0.893-2 2s0.893 2 2 2c1.107 0 2-0.893 2-2s-0.893-2-2-2zM5.667 22c-1.107 0-2 0.907-2 2s0.907 2 2 2c1.093 0 2-0.907 2-2s-0.893-2-2-2zM9.667 25.333h18.667v-2.667h-18.667v2.667zM9.667 17.333h18.667v-2.667h-18.667v2.667zM9.667 6.667v2.667h18.667v-2.667h-18.667z"></path>
</svg>
