<!-- Generated by IcoMoon.io -->
<svg version="1.1" xmlns="http://www.w3.org/2000/svg" width="32" height="32" viewBox="0 0 32 32">
<title>multimedia-active</title>
<path d="M9.191 13.587c-1.006 0-1.822-0.816-1.822-1.822s0.816-1.822 1.822-1.822c1.006 0 1.822 0.816 1.822 1.822s-0.816 1.822-1.822 1.822v0zM24.044 15.013v1.327c0.319-0.056 0.647-0.091 0.982-0.091 0.293 0 0.578 0.029 0.859 0.073v-9.13c0-0.795-0.644-1.44-1.439-1.44h-20.396c-0.794 0-1.438 0.644-1.438 1.44v14.3c0 0.797 0.644 1.44 1.438 1.44h15.437c-0.064-0.338-0.1-0.686-0.1-1.043 0-0.272 0.026-0.537 0.063-0.798h-11.691l6.797-6.796c0.258-0.258 0.68-0.258 0.937 0l0.868 0.868 3.448-3.448c0.258-0.258 0.68-0.258 0.937 0l3.298 3.299zM25.983 23.873l-0.956-0.956-0.957 0.957c-0.284 0.284-0.745 0.284-1.029 0s-0.283-0.744 0.001-1.028l0.957-0.957-0.958-0.958c-0.284-0.284-0.283-0.744 0.001-1.028s0.743-0.284 1.027 0l0.958 0.958 0.957-0.957c0.284-0.284 0.744-0.285 1.028-0.001s0.284 0.745 0 1.029l-0.957 0.957 0.956 0.956c0.284 0.284 0.285 0.744 0.001 1.028s-0.745 0.284-1.029 0zM28.11 18.804c-1.703-1.703-4.464-1.704-6.167-0.001s-1.703 4.465 0 6.168c1.703 1.703 4.465 1.703 6.168 0s1.702-4.464-0.001-6.167z"></path>
</svg>
