<!-- Generated by IcoMoon.io -->
<svg version="1.1" xmlns="http://www.w3.org/2000/svg" width="32" height="32" viewBox="0 0 32 32">
<title>multimedia</title>
<path d="M9.191 13.587c-1.006 0-1.822-0.816-1.822-1.822s0.816-1.822 1.822-1.822c1.006 0 1.822 0.816 1.822 1.822s-0.816 1.822-1.822 1.822v0zM24.044 15.012v1.327c0.319-0.056 0.647-0.091 0.982-0.091 0.293 0 0.578 0.029 0.859 0.073v-9.13c0-0.795-0.644-1.44-1.439-1.44h-20.395c-0.794 0-1.438 0.644-1.438 1.44v14.299c0 0.797 0.644 1.44 1.438 1.44h15.437c-0.064-0.338-0.1-0.686-0.1-1.043 0-0.272 0.026-0.537 0.063-0.798h-11.691l6.797-6.796c0.258-0.258 0.68-0.258 0.937 0l0.868 0.868 3.448-3.448c0.258-0.258 0.68-0.258 0.937 0l3.298 3.299zM27.106 22.615h-1.353v1.353c0 0.401-0.326 0.727-0.727 0.727s-0.726-0.326-0.726-0.727v-1.353h-1.354c-0.401 0-0.726-0.326-0.726-0.727s0.325-0.726 0.726-0.726h1.354v-1.353c0-0.401 0.325-0.727 0.726-0.727s0.727 0.326 0.727 0.727v1.353h1.353c0.401 0 0.727 0.325 0.727 0.726s-0.326 0.727-0.727 0.727zM25.026 17.527c-2.409 0-4.361 1.952-4.361 4.36s1.953 4.361 4.361 4.361c2.409 0 4.361-1.953 4.361-4.361s-1.953-4.36-4.361-4.36z"></path>
</svg>
