<!-- Generated by IcoMoon.io -->
<svg version="1.1" xmlns="http://www.w3.org/2000/svg" width="32" height="32" viewBox="0 0 32 32">
<title>not-signed</title>
<path d="M16.21 21.551c0.105 0.816 0.337 1.593 0.674 2.311h-11.297c-1.271 0-2.311-1.040-2.311-2.311v-13.867c0-1.271 1.040-2.311 2.311-2.311h18.489c1.271 0 2.311 1.040 2.311 2.311v5.411c-0.729-0.237-1.506-0.369-2.311-0.38v-2.72l-9.244 5.778-9.244-5.778v11.556h10.623zM24.076 7.685h-18.489l9.244 5.778 9.244-5.778zM23.971 14.454c-3.36 0-6.086 2.727-6.086 6.086s2.727 6.086 6.086 6.086c3.36 0 6.086-2.727 6.086-6.086s-2.727-6.086-6.086-6.086zM24.78 24.676h-1.619v-1.654h1.619v1.654zM24.78 21.367h-1.619v-4.964h1.619v4.964z"></path>
</svg>
