<!-- Generated by IcoMoon.io -->
<svg version="1.1" xmlns="http://www.w3.org/2000/svg" width="32" height="32" viewBox="0 0 32 32">
<title>paperclip</title>
<path d="M22.545 20.364h-12.545c-2.411 0-4.364-1.953-4.364-4.364s1.953-4.364 4.364-4.364h13.636c1.505 0 2.727 1.222 2.727 2.727s-1.222 2.727-2.727 2.727h-11.455c-0.6 0-1.091-0.491-1.091-1.091s0.491-1.091 1.091-1.091h10.364v-1.636h-10.364c-1.505 0-2.727 1.222-2.727 2.727s1.222 2.727 2.727 2.727h11.455c2.411 0 4.364-1.953 4.364-4.364s-1.953-4.364-4.364-4.364h-13.636c-3.316 0-6 2.684-6 6s2.684 6 6 6h12.545v-1.636z"></path>
</svg>
