<!-- Generated by IcoMoon.io -->
<svg version="1.1" xmlns="http://www.w3.org/2000/svg" width="32" height="32" viewBox="0 0 32 32">
<title>pencil</title>
<path d="M22.669 13.33l-10.988 10.988c-0.049 0.049-0.099 0.074-0.148 0.099l-5.58 2.222c-0.074 0.025-0.123 0.025-0.173 0.025-0.123 0-0.222-0.049-0.321-0.123-0.123-0.123-0.148-0.321-0.099-0.494l2.222-5.58c0.025-0.049 0.049-0.099 0.099-0.148l10.988-10.988 4 4zM26.274 7.824c0.519 0.543 0.519 1.383 0 1.901l-2.272 2.272-4-4 2.272-2.272c0.519-0.519 1.358-0.519 1.901 0l2.099 2.099z"></path>
</svg>
