<!-- Generated by IcoMoon.io -->
<svg version="1.1" xmlns="http://www.w3.org/2000/svg" width="32" height="32" viewBox="0 0 32 32">
<title>radio-active</title>
<path d="M16 6.667v0c5.155 0 9.333 4.179 9.333 9.333v0c0 5.155-4.179 9.333-9.333 9.333v0 0c-5.155 0-9.333-4.179-9.333-9.333v0c0-5.155 4.179-9.333 9.333-9.333v0zM16 8.222c-4.296 0-7.778 3.482-7.778 7.778s3.482 7.778 7.778 7.778c4.296 0 7.778-3.482 7.778-7.778s-3.482-7.778-7.778-7.778zM16 11.333c2.577 0 4.667 2.089 4.667 4.667s-2.089 4.667-4.667 4.667c-2.577 0-4.667-2.089-4.667-4.667s2.089-4.667 4.667-4.667z"></path>
</svg>
