<!-- Generated by IcoMoon.io -->
<svg version="1.1" xmlns="http://www.w3.org/2000/svg" width="32" height="32" viewBox="0 0 32 32">
<title>restore</title>
<path d="M17.175 4.952c-6.101 0-11.048 4.947-11.048 11.048h-3.683l4.775 4.775 0.086 0.172 4.959-4.947h-3.683c0-4.751 3.842-8.593 8.593-8.593s8.593 3.842 8.593 8.593-3.842 8.593-8.593 8.593c-2.369 0-4.517-0.97-6.064-2.529l-1.743 1.743c2.001 2.001 4.751 3.241 7.807 3.241 6.101 0 11.048-4.947 11.048-11.048s-4.947-11.048-11.048-11.048zM15.947 11.090v6.138l5.254 3.118 0.884-1.485-4.296-2.553v-5.217h-1.841z"></path>
</svg>
