<!-- Generated by IcoMoon.io -->
<svg version="1.1" xmlns="http://www.w3.org/2000/svg" width="32" height="32" viewBox="0 0 32 32">
<title>rotate_left</title>
<path d="M9.48 12.040l-1.88-1.893c-1.2 1.547-1.947 3.333-2.173 5.187h2.693c0.187-1.16 0.653-2.293 1.36-3.293zM8.12 18h-2.693c0.227 1.853 0.96 3.64 2.16 5.187l1.88-1.893c-0.693-1-1.16-2.12-1.347-3.293zM9.467 25.093c1.547 1.2 3.347 1.92 5.2 2.147v-2.707c-1.16-0.2-2.28-0.653-3.28-1.373l-1.92 1.933zM17.333 6.093v-4.093l-6.067 6.067 6.067 5.933v-5.213c3.787 0.64 6.667 3.92 6.667 7.88s-2.88 7.24-6.667 7.88v2.693c5.267-0.653 9.333-5.133 9.333-10.573s-4.067-9.92-9.333-10.573z"></path>
</svg>
