<!-- Generated by IcoMoon.io -->
<svg version="1.1" xmlns="http://www.w3.org/2000/svg" width="32" height="32" viewBox="0 0 32 32">
<title>rotate_right</title>
<path d="M20.78 8.113l-6.067-6.067v4.093c-5.253 0.653-9.333 5.133-9.333 10.573s4.067 9.92 9.333 10.573v-2.693c-3.787-0.64-6.667-3.92-6.667-7.88s2.88-7.24 6.667-7.88v5.213l6.067-5.933zM26.62 15.38c-0.227-1.853-0.96-3.64-2.16-5.187l-1.893 1.893c0.72 1 1.173 2.133 1.36 3.293h2.693zM17.38 24.58v2.693c1.853-0.227 3.653-0.947 5.2-2.147l-1.92-1.92c-1 0.72-2.12 1.187-3.28 1.373zM22.567 21.353l1.893 1.88c1.2-1.547 1.933-3.333 2.16-5.187h-2.693c-0.187 1.16-0.64 2.293-1.36 3.307z"></path>
</svg>
