<!-- Generated by IcoMoon.io -->
<svg version="1.1" xmlns="http://www.w3.org/2000/svg" width="32" height="32" viewBox="0 0 32 32">
<title>search</title>
<path d="M20.58 18.751h-0.964l-0.342-0.329c1.195-1.39 1.915-3.196 1.915-5.16 0-4.379-3.549-7.928-7.928-7.928s-7.928 3.549-7.928 7.928c0 4.379 3.549 7.928 7.928 7.928 1.964 0 3.769-0.72 5.16-1.915l0.329 0.342v0.964l6.099 6.087 1.817-1.817-6.087-6.099zM13.262 18.751c-3.037 0-5.489-2.452-5.489-5.489s2.452-5.489 5.489-5.489c3.037 0 5.489 2.452 5.489 5.489s-2.452 5.489-5.489 5.489v0z"></path>
</svg>
