<!-- Generated by IcoMoon.io -->
<svg version="1.1" xmlns="http://www.w3.org/2000/svg" width="32" height="32" viewBox="0 0 32 32">
<title>send-feedback</title>
<path d="M16 2.667c-7.429 0-13.333 5.143-13.333 11.619 0 3.619 1.905 7.048 4.952 9.143v5.905l5.905-3.619c0.762 0.19 1.714 0.19 2.476 0.19 7.429 0 13.333-5.143 13.333-11.619s-5.905-11.619-13.333-11.619zM9.333 16c-0.952 0-1.714-0.762-1.714-1.714s0.762-1.714 1.714-1.714c0.952 0 1.714 0.762 1.714 1.714s-0.762 1.714-1.714 1.714zM16 16c-0.952 0-1.714-0.762-1.714-1.714s0.762-1.714 1.714-1.714c0.952 0 1.714 0.762 1.714 1.714s-0.762 1.714-1.714 1.714zM22.667 16c-0.952 0-1.714-0.762-1.714-1.714s0.762-1.714 1.714-1.714c0.952 0 1.714 0.762 1.714 1.714s-0.762 1.714-1.714 1.714z"></path>
</svg>
