<!-- Generated by IcoMoon.io -->
<svg version="1.1" xmlns="http://www.w3.org/2000/svg" width="32" height="32" viewBox="0 0 32 32">
<title>shield</title>
<path d="M26.299 8.092c0.022 0.069 0.040 0.142 0.050 0.217 0.287 2.452 0.883 7.549-1.041 11.587-1.526 3.205-5.003 7.097-9.022 8.069-0.094 0.023-0.19 0.035-0.286 0.035-0.097 0-0.194-0.012-0.287-0.035-2.655-0.642-5.070-2.562-6.846-4.714-0.911-1.104-1.658-2.267-2.176-3.355-1.925-4.037-1.327-9.135-1.038-11.587 0.065-0.544 0.519-0.971 1.085-1.013 4.024-0.305 6.383-1.761 7.793-2.631 0.371-0.229 0.663-0.411 0.94-0.544 0.167-0.080 0.348-0.121 0.529-0.121s0.363 0.040 0.529 0.121c0.278 0.135 0.569 0.313 0.938 0.541 1.411 0.871 3.771 2.329 7.798 2.634 0.49 0.037 0.891 0.359 1.035 0.796zM20.306 18.976l-3.025-2.978 3.025-2.977c0.353-0.348 0.353-0.912 0-1.259s-0.926-0.348-1.279 0l-3.025 2.977-3.025-2.977c-0.353-0.348-0.926-0.348-1.279 0s-0.353 0.912 0 1.259l3.025 2.977-3.029 2.982c-0.353 0.348-0.353 0.912 0 1.259 0.177 0.174 0.409 0.261 0.64 0.261s0.463-0.087 0.64-0.261l3.029-2.982 3.025 2.978c0.176 0.174 0.408 0.261 0.64 0.261s0.463-0.087 0.64-0.261c0.353-0.348 0.353-0.912 0-1.259z"></path>
</svg>
