<!-- Generated by IcoMoon.io -->
<svg version="1.1" xmlns="http://www.w3.org/2000/svg" width="32" height="32" viewBox="0 0 32 32">
<title>smile-o</title>
<path d="M15.987 2.667c-7.36 0-13.32 5.973-13.32 13.333s5.96 13.333 13.32 13.333c7.373 0 13.347-5.973 13.347-13.333s-5.973-13.333-13.347-13.333zM16 26.667c-5.893 0-10.667-4.773-10.667-10.667s4.773-10.667 10.667-10.667c5.893 0 10.667 4.773 10.667 10.667s-4.773 10.667-10.667 10.667zM20.667 14.667c1.107 0 2-0.893 2-2s-0.893-2-2-2c-1.107 0-2 0.893-2 2s0.893 2 2 2zM11.333 14.667c1.107 0 2-0.893 2-2s-0.893-2-2-2c-1.107 0-2 0.893-2 2s0.893 2 2 2zM16 23.333c3.107 0 5.747-1.947 6.813-4.667h-13.627c1.067 2.72 3.707 4.667 6.813 4.667z"></path>
</svg>
