<!-- Generated by IcoMoon.io -->
<svg version="1.1" xmlns="http://www.w3.org/2000/svg" width="32" height="32" viewBox="0 0 32 32">
<title>square-o</title>
<path d="M8.222 9.771v12.459c0 0.84 0.693 1.548 1.548 1.548h12.459c0.84 0 1.548-0.693 1.548-1.548v-12.459c0-0.84-0.693-1.548-1.548-1.548h-12.459c-0.84 0-1.548 0.693-1.548 1.548zM6.667 9.771c0-1.711 1.402-3.104 3.104-3.104h12.459c1.711 0 3.104 1.402 3.104 3.104v12.459c0 1.711-1.402 3.104-3.104 3.104h-12.459c-1.711 0-3.104-1.402-3.104-3.104v-12.459z"></path>
</svg>
