<!-- Generated by IcoMoon.io -->
<svg version="1.1" xmlns="http://www.w3.org/2000/svg" width="32" height="32" viewBox="0 0 32 32">
<title>twitter</title>
<path d="M11.053 26.836c10.063 0 15.567-8.337 15.567-15.567 0-0.237-0.005-0.473-0.015-0.707 1.068-0.772 1.997-1.736 2.729-2.833-0.98 0.436-2.035 0.729-3.142 0.861 1.13-0.677 1.997-1.749 2.406-3.026-1.057 0.627-2.228 1.082-3.474 1.328-0.998-1.063-2.42-1.729-3.994-1.729-3.021 0-5.471 2.45-5.471 5.47 0 0.429 0.048 0.847 0.142 1.248-4.547-0.229-8.579-2.406-11.278-5.716-0.47 0.809-0.741 1.748-0.741 2.75 0 1.898 0.966 3.574 2.435 4.554-0.898-0.028-1.741-0.274-2.478-0.684-0.001 0.023-0.001 0.045-0.001 0.070 0 2.65 1.886 4.862 4.389 5.363-0.46 0.125-0.943 0.193-1.443 0.193-0.352 0-0.695-0.035-1.028-0.099 0.697 2.174 2.716 3.756 5.111 3.8-1.873 1.468-4.231 2.342-6.795 2.342-0.441 0-0.877-0.025-1.305-0.076 2.421 1.552 5.296 2.458 8.387 2.458z"></path>
</svg>
