<!-- Generated by IcoMoon.io -->
<svg version="1.1" xmlns="http://www.w3.org/2000/svg" width="32" height="32" viewBox="0 0 32 32">
<title>users</title>
<path d="M20.849 14.788c2.012 0 3.624-1.624 3.624-3.636s-1.612-3.636-3.624-3.636c-2.012 0-3.636 1.624-3.636 3.636s1.624 3.636 3.636 3.636zM11.152 14.788c2.012 0 3.624-1.624 3.624-3.636s-1.612-3.636-3.624-3.636c-2.012 0-3.636 1.624-3.636 3.636s1.624 3.636 3.636 3.636zM11.152 17.212c-2.824 0-8.485 1.418-8.485 4.242v3.030h16.97v-3.030c0-2.824-5.661-4.242-8.485-4.242zM20.849 17.212c-0.352 0-0.752 0.024-1.176 0.061 1.406 1.018 2.388 2.388 2.388 4.182v3.030h7.273v-3.030c0-2.824-5.661-4.242-8.485-4.242z"></path>
</svg>
