<!-- Generated by IcoMoon.io -->
<svg version="1.1" xmlns="http://www.w3.org/2000/svg" width="32" height="32" viewBox="0 0 32 32">
<title>user-circle-o</title>
<path d="M16 2.667c-7.36 0-13.333 5.973-13.333 13.333s5.973 13.333 13.333 13.333c7.36 0 13.333-5.973 13.333-13.333s-5.973-13.333-13.333-13.333zM16 6.667c2.213 0 4 1.787 4 4s-1.787 4-4 4c-2.213 0-4-1.787-4-4s1.787-4 4-4zM16 25.6c-3.333 0-6.28-1.707-8-4.293 0.040-2.653 5.333-4.107 8-4.107 2.653 0 7.96 1.453 8 4.107-1.72 2.587-4.667 4.293-8 4.293z"></path>
</svg>
