<!-- Generated by IcoMoon.io -->
<svg version="1.1" xmlns="http://www.w3.org/2000/svg" width="32" height="32" viewBox="0 0 32 32">
<title>warning</title>
<path d="M5.96 27.338h20.080c2.053 0 3.333-2.227 2.307-4l-10.040-17.347c-1.027-1.773-3.587-1.773-4.613 0l-10.040 17.347c-1.027 1.773 0.253 4 2.307 4zM16 18.005v0c-0.733 0-1.333-0.6-1.333-1.333v-2.667c0-0.733 0.6-1.333 1.333-1.333v0c0.733 0 1.333 0.6 1.333 1.333v2.667c0 0.733-0.6 1.333-1.333 1.333zM17.333 23.338h-2.667v-2.667h2.667v2.667z"></path>
</svg>
